<svg xmlns="http://www.w3.org/2000/svg" width="10.321" height="6.544" viewBox="0 0 10.321 6.544">
  <path id="Icon_ionic-ios-arrow-round-forward" data-name="Icon ionic-ios-arrow-round-forward" d="M14.457,11.377a.43.43,0,0,0,0,.627l2.18,2.075h-8.3a.443.443,0,1,0,0,.886h8.292l-2.18,2.075a.433.433,0,0,0,0,.627.481.481,0,0,0,.656,0l2.954-2.829h0a.5.5,0,0,0,.1-.14.4.4,0,0,0,.036-.17.433.433,0,0,0-.133-.31l-2.954-2.829A.473.473,0,0,0,14.457,11.377Z" transform="translate(-7.875 -11.252)" fill="#e86241"/>
</svg>
